<?xml version="1.0" encoding="utf-8"?>
<!-- Generator: Adobe Illustrator 26.5.0, SVG Export Plug-In . SVG Version: 6.00 Build 0)  -->
<svg version="1.1" id="Layer_1" xmlns="http://www.w3.org/2000/svg" xmlns:xlink="http://www.w3.org/1999/xlink" x="0px" y="0px"
	 viewBox="0 0 119.3 122.9" style="enable-background:new 0 0 119.3 122.9;" xml:space="preserve">
<style type="text/css">
	.st0{fill-rule:evenodd;clip-rule:evenodd;fill:#FFFFFF;}
</style>
<path class="st0" d="M47.5,78.6L44,82.2v-7.1L47.5,78.6L47.5,78.6z M43.4,46.8l-0.1,0.2c1.5,1.1,2.8,2.5,3.8,4c24.1,0-9.5,0,25,0
	c1.1-1.5,2.4-2.9,3.9-4c-0.1-0.2-0.1-0.3-0.2-0.5c-0.1-0.5-0.2-1-0.4-1.5s-0.3-0.9-0.5-1.3l-0.1-0.1c-0.4-1-0.9-2-1.5-2.9
	c-0.6-0.9-1.3-1.7-2-2.4c-0.7-0.7-1.6-1.4-2.4-2c-0.9-0.6-1.9-1.1-2.9-1.5c-1-0.4-2-0.8-3.1-1c-2.2-0.4-4.5-0.4-6.7,0
	c-1,0.2-2,0.5-3,0.9l-0.1,0.1c-1,0.4-2,0.9-2.9,1.5c-0.9,0.6-1.7,1.3-2.4,2c-0.7,0.8-1.4,1.6-2,2.4c-0.6,0.9-1.1,1.9-1.5,2.9
	c-0.2,0.5-0.4,1-0.6,1.6C43.6,45.7,43.4,46.3,43.4,46.8L43.4,46.8z M38.9,44.8c0.1-0.3,0.2-0.6,0.3-0.9c0.2-0.7,0.5-1.4,0.7-2.1l0,0
	c0.6-1.3,1.2-2.5,2-3.6c0.8-1.1,1.6-2.2,2.6-3.2l0,0c1-1,2-1.8,3.2-2.6c1.1-0.8,2.4-1.4,3.6-2l0.2-0.1c1.3-0.5,2.6-0.9,3.9-1.2
	c2.8-0.6,5.7-0.6,8.6,0c1.4,0.3,2.8,0.7,4.1,1.3l0,0c1.3,0.6,2.5,1.2,3.6,2c1.1,0.8,2.2,1.6,3.2,2.6l0,0c1,1,1.8,2,2.6,3.1
	c0.8,1.2,1.4,2.4,2,3.6l0.1,0.2c0.2,0.6,0.5,1.2,0.6,1.7c0.1,0.3,0.2,0.7,0.3,1c8.4-2.9,18.1,2.2,24.5,9.2v-7.4c0-0.3,0-0.6-0.1-0.8
	c-0.1-0.3-0.3-0.5-0.5-0.8c-0.4-0.4-1-0.7-1.6-0.6h-7.1c-1.2,0-2.2-0.8-2.4-2c-0.2-0.7-0.3-1.3-0.6-2s-0.5-1.4-0.8-2.2v-0.1
	c-0.3-0.7-0.6-1.4-0.8-2s-0.6-1.3-1-2c-0.5-0.9-0.3-2.1,0.4-2.8l5.5-5.7c0.2-0.2,0.4-0.4,0.5-0.7c0.1-0.3,0.2-0.5,0.2-0.8
	c0-0.3,0-0.6-0.2-0.8c-0.1-0.3-0.3-0.6-0.5-0.8l-6.8-6.8c-0.2-0.2-0.5-0.4-0.8-0.5c-0.3-0.1-0.6-0.2-0.8-0.1c-0.3,0-0.6,0-0.8,0.1
	c-0.3,0.1-0.5,0.3-0.7,0.5l-5.1,5c-0.8,0.8-2.1,0.9-3.1,0.3c-0.6-0.4-1.2-0.7-1.9-1.1s-1.4-0.7-2-1s-1.4-0.6-2.1-0.9
	s-1.4-0.5-2.2-0.8c-1-0.3-1.7-1.3-1.7-2.3V7.1c0-0.3,0-0.6-0.2-0.9l-0.1-0.1c-0.1-0.2-0.3-0.4-0.4-0.6c-0.4-0.4-1-0.7-1.6-0.6H56
	c-0.3,0-0.6,0-0.8,0.2c-0.3,0.1-0.5,0.3-0.8,0.5c-0.2,0.2-0.4,0.4-0.5,0.7v0.1c-0.1,0.3-0.1,0.5-0.1,0.8v7.1c0,1.2-0.8,2.2-2,2.4
	c-0.8,0.2-1.5,0.4-2.1,0.6s-1.5,0.5-2.1,0.8h-0.1c-0.6,0.2-1.3,0.5-2,0.8s-1.4,0.7-2,1c-0.9,0.5-2.1,0.3-2.8-0.4L35,13.8
	c-0.2-0.2-0.4-0.4-0.7-0.5c-0.3-0.1-0.5-0.2-0.8-0.1c-0.3,0-0.6,0-0.8,0.2c-0.3,0.1-0.6,0.3-0.8,0.5c-2.3,2.2-4.5,4.6-6.8,6.8
	c-0.2,0.2-0.4,0.5-0.5,0.8c-0.1,0.3-0.2,0.6-0.1,0.8c0,0.3,0,0.6,0.1,0.8c0.1,0.3,0.3,0.5,0.5,0.7l5,5.1c0.8,0.8,0.9,2.1,0.3,3.1
	c-0.4,0.6-0.7,1.2-1.1,1.9s-0.7,1.4-1,2s-0.6,1.4-0.9,2.1s-0.5,1.4-0.8,2.2c-0.3,1-1.3,1.7-2.3,1.7h-7.7c-0.3,0-0.6,0-0.9,0.2h-0.1
	c-0.2,0.1-0.4,0.3-0.6,0.4l0,0c-0.2,0.2-0.4,0.4-0.5,0.7c-0.1,0.3-0.2,0.6-0.1,0.9v9.7l0,0C20.6,47,30.5,42,38.9,44.8z M11.1,58.1
	c-1-1.2-1.5-2.8-1.5-4.3V44c0-0.9,0.2-1.8,0.5-2.7l0,0c0.7-1.7,2-3,3.6-3.7l0.2-0.1c0.9-0.3,1.8-0.5,2.7-0.5h6l0.3-0.8
	c0.3-0.8,0.6-1.6,1-2.4s0.8-1.6,1.1-2.3l0.3-0.6l-3.7-3.7c-0.7-0.7-1.2-1.4-1.6-2.3l0,0c-0.7-1.7-0.7-3.7,0-5.4
	c0.4-0.9,0.9-1.6,1.6-2.3l6.8-6.8c0.7-0.7,1.4-1.2,2.3-1.6c0.9-0.4,1.8-0.6,2.7-0.6c1.9,0,3.7,0.8,5,2.1l4.3,4.2l0.6-0.3
	c0.7-0.3,1.4-0.6,2.2-0.9l0.1-0.1c0.8-0.3,1.6-0.6,2.5-0.9l0.7-0.2V7.1c0-0.9,0.2-1.8,0.5-2.6V4.3c0.4-0.8,0.9-1.6,1.6-2.3v0
	c0.7-0.6,1.5-1.2,2.3-1.5C54.2,0.2,55.1,0,56,0h9.7c1.9,0,3.7,0.7,5,2.1c0.6,0.6,1.1,1.3,1.4,2.1l0.1,0.2c0.3,0.9,0.5,1.8,0.5,2.7v6
	l0.8,0.3c0.8,0.3,1.6,0.6,2.4,1s1.6,0.8,2.3,1.1l0.6,0.3l3.7-3.7c0.7-0.7,1.4-1.2,2.3-1.6c1.7-0.7,3.7-0.7,5.4,0
	c0.9,0.4,1.6,0.9,2.3,1.6l6.8,6.9c0.7,0.7,1.2,1.4,1.6,2.3c0.4,0.9,0.6,1.8,0.6,2.7c0,1.9-0.7,3.7-2.1,5l-4.2,4.3l0.3,0.7
	c0.3,0.8,0.7,1.5,1,2.3v0.1c0.3,0.8,0.6,1.6,0.8,2.5l0.2,0.6h5.2c1.9,0,3.7,0.7,5,2.1v0c0.6,0.7,1.2,1.4,1.5,2.3l0,0
	c0.3,0.8,0.5,1.7,0.5,2.7v9.7c0,0.9-0.2,1.8-0.5,2.7l0,0c-0.1,0.2-0.2,0.3-0.2,0.5l0.2,0.4c7.3,12.7,10.9,31.5,9.9,45
	c-0.2,4-1.1,8-2.8,11.7c-1.7,3.5-4.1,5.8-7.4,6.4c-4.2,0.8-9.3-1.4-15.6-7.8c-0.8-0.8-1.6-1.6-2.5-2.5c-3.1-2.9-6-6.1-8.6-9.5H37
	c-2.6,3.4-5.4,6.6-8.6,9.6c-0.8,0.8-1.7,1.7-2.5,2.5c-6.2,6.4-11.4,8.6-15.6,7.8c-3.3-0.6-5.7-2.9-7.4-6.4
	c-1.6-3.7-2.6-7.7-2.8-11.8C-0.9,90.7,3.1,70.8,11.1,58.1z M38.1,66.4v6.5h6.5c7.3,0,7.3,11.1,0,11.1H38v6.5c0,7.3-11.1,7.3-11.1,0
	V84h-6.5c-7.3,0-7.3-11.1,0-11.1H27v-6.5C27,59.1,38.1,59.1,38.1,66.4z M88.6,60.8c2,2,2,5.2,0,7.2c-2,2-5.2,2-7.2,0
	c-2-2-2-5.2,0-7.2c0,0,0,0,0,0C83.4,58.8,86.6,58.8,88.6,60.8C88.6,60.8,88.6,60.8,88.6,60.8z M88.6,83.1c2,2,2,5.2,0,7.2
	c-2,2-5.2,2-7.2,0c-2-2-2-5.2,0-7.2c0,0,0,0,0,0C83.4,81.1,86.6,81.1,88.6,83.1C88.6,83,88.6,83.1,88.6,83.1z M100.9,71.4
	c2,2,2,5.2,0,7.2c-2,2-5.2,2-7.2,0c-2-2-2-5.2,0-7.2c0,0,0,0,0,0C95.6,69.4,98.9,69.4,100.9,71.4C100.9,71.4,100.9,71.4,100.9,71.4z
	 M76.4,71.4c2,2,2,5.2,0,7.2c-2,2-5.2,2-7.2,0c-2-2-2-5.2,0-7.2c0,0,0,0,0,0C71.1,69.4,74.4,69.4,76.4,71.4
	C76.4,71.4,76.4,71.4,76.4,71.4z M32.7,63.8l3.5,3.5h-7L32.7,63.8L32.7,63.8z M17.9,78.6l3.5,3.5v-7L17.9,78.6z M32.7,93.5l3.5-3.5
	h-7L32.7,93.5L32.7,93.5z"/>
</svg>
